<?xml version="1.0" standalone="no"?>
<!DOCTYPE svg PUBLIC "-//W3C//DTD SVG 20010904//EN"
 "http://www.w3.org/TR/2001/REC-SVG-20010904/DTD/svg10.dtd">
<svg version="1.0" xmlns="http://www.w3.org/2000/svg"
 width="543.000000pt" height="543.000000pt" viewBox="0 0 543.000000 543.000000"
 preserveAspectRatio="xMidYMid meet">

<g transform="translate(0.000000,543.000000) scale(0.100000,-0.100000)"
fill="#000000" stroke="none">
<path d="M2521 4839 c-467 -39 -929 -198 -1300 -447 -584 -394 -943 -976
-1002 -1627 -96 -1064 686 -2056 1844 -2340 254 -63 389 -78 677 -79 265 0
365 9 589 55 838 172 1530 725 1816 1454 173 440 186 938 35 1380 -145 426
-420 797 -805 1086 -511 383 -1190 572 -1854 518z m619 -154 c371 -57 664
-157 957 -326 590 -341 980 -890 1069 -1506 25 -171 15 -476 -20 -636 -80
-367 -253 -692 -521 -975 -303 -321 -743 -571 -1207 -686 -536 -133 -1083
-106 -1603 81 -143 51 -403 180 -525 260 -542 357 -889 891 -960 1475 -18 144
-8 437 19 570 98 484 364 904 777 1228 132 104 247 176 414 259 311 157 565
227 980 275 86 10 520 -3 620 -19z"/>
<path d="M764 3166 c-18 -14 -19 -31 -22 -316 -3 -341 -2 -350 63 -350 64 0
65 7 65 342 0 285 -1 299 -20 318 -23 23 -58 26 -86 6z"/>
<path d="M1035 3155 l-25 -24 0 -299 c0 -277 1 -300 18 -315 26 -24 68 -21 86
5 13 19 16 58 16 225 0 112 3 203 8 203 4 -1 32 -40 61 -88 108 -172 213 -327
233 -344 24 -22 77 -23 104 -4 18 14 19 31 22 320 3 296 2 306 -18 326 -24 24
-49 26 -76 6 -17 -13 -19 -31 -24 -233 l-5 -218 -147 222 c-81 122 -156 227
-167 233 -32 16 -60 12 -86 -15z"/>
<path d="M1827 3166 c-86 -24 -136 -75 -144 -149 -7 -59 1 -88 33 -127 35 -41
82 -64 200 -97 111 -30 144 -54 144 -103 0 -84 -148 -129 -225 -68 -14 11 -37
42 -50 68 -28 56 -55 69 -90 46 -28 -18 -34 -70 -14 -109 23 -46 83 -97 132
-113 68 -23 206 -16 262 13 74 39 115 105 115 185 0 98 -60 149 -235 198 -152
43 -191 88 -124 144 25 21 41 26 88 26 67 0 89 -13 125 -75 22 -37 32 -45 56
-45 52 0 73 44 51 103 -34 88 -195 140 -324 103z"/>
<path d="M3024 3170 c-12 -5 -29 -19 -38 -32 -26 -36 -226 -550 -226 -579 0
-35 31 -61 67 -57 22 2 33 13 53 53 14 28 30 65 37 83 l11 32 134 0 133 0 24
-62 c13 -35 31 -73 39 -85 28 -44 112 -18 112 33 0 14 -30 98 -66 187 -36 89
-86 212 -110 272 -60 147 -100 184 -170 155z m100 -302 l35 -98 -94 0 c-69 0
-95 3 -95 13 0 13 76 222 87 240 4 6 12 -5 19 -24 6 -19 28 -78 48 -131z"/>
<path d="M3479 3161 l-24 -19 -3 -294 c-3 -287 -2 -295 18 -321 26 -33 71 -36
100 -7 20 20 21 30 18 321 l-3 301 -24 19 c-29 24 -53 24 -82 0z"/>
<path d="M3929 3166 c-14 -8 -31 -27 -38 -43 -19 -42 -180 -450 -202 -511 -26
-76 -9 -112 56 -112 29 0 37 10 71 98 l28 72 133 0 134 0 11 -31 c6 -16 22
-54 37 -82 28 -55 58 -70 99 -48 44 23 38 50 -83 344 -64 155 -124 290 -133
300 -25 24 -81 31 -113 13z m62 -163 c26 -66 79 -217 79 -225 0 -4 -43 -8 -96
-8 -73 0 -95 3 -91 13 2 6 24 65 47 130 24 64 44 117 47 117 2 0 8 -12 14 -27z"/>
<path d="M4394 3159 c-18 -20 -19 -42 -22 -316 -3 -333 -1 -343 62 -343 57 0
65 19 68 165 l3 130 143 3 142 3 1 -83 c2 -97 6 -154 14 -185 11 -45 98 -42
115 3 14 37 13 577 -1 608 -15 32 -61 43 -94 22 -29 -19 -39 -73 -33 -181 l4
-75 -148 0 -148 0 0 115 c0 102 -2 117 -20 135 -26 26 -62 25 -86 -1z"/>
<path d="M2320 3157 c-16 -8 -27 -25 -33 -52 -10 -48 -4 -552 7 -578 10 -20
47 -32 79 -23 35 9 47 47 47 155 l0 98 108 5 c131 7 190 30 230 91 22 34 27
52 27 106 0 113 -47 180 -142 202 -59 13 -294 11 -323 -4z m296 -113 c34 -25
45 -63 33 -109 -13 -48 -50 -65 -146 -68 l-78 -2 -3 104 -3 103 85 -3 c66 -3
91 -9 112 -25z"/>
<path d="M2825 1832 c-25 -18 -115 -131 -114 -143 0 -8 14 -25 31 -38 l31 -25
43 50 c24 27 44 43 44 35 0 -8 -20 -38 -45 -67 -25 -29 -42 -55 -37 -58 5 -3
30 20 55 51 35 41 47 63 47 88 0 19 5 37 10 40 15 9 12 42 -6 59 -16 17 -42
20 -59 8z"/>
<path d="M2594 1543 c-140 -167 -130 -150 -109 -173 10 -11 24 -20 30 -20 19
0 65 66 65 93 0 28 17 46 51 52 12 3 25 8 29 12 3 5 26 32 50 62 l44 54 -23
18 c-13 11 -26 19 -30 19 -4 0 -52 -53 -107 -117z"/>
<path d="M2574 1643 c-12 -2 -28 -12 -36 -21 -19 -22 -62 -142 -54 -150 8 -7
86 68 86 83 0 5 8 15 19 22 10 6 29 26 41 42 l21 31 -28 -1 c-15 -1 -38 -4
-49 -6z"/>
<path d="M2823 1574 c-14 -22 -22 -25 -50 -21 -31 5 -45 -8 -26 -26 3 -4 14
-28 23 -54 10 -27 21 -56 25 -65 12 -29 -18 -21 -83 22 -97 65 -138 48 -81
-34 51 -71 147 -128 257 -151 107 -23 117 -16 165 119 13 35 21 68 18 73 -14
20 -204 163 -217 163 -7 0 -21 -12 -31 -26z"/>
<path d="M3123 1418 c-19 -24 -83 -170 -83 -189 0 -13 17 -27 59 -47 l58 -28
57 114 c31 63 56 115 54 116 -89 46 -129 55 -145 34z"/>
<path d="M2440 1335 c-7 -20 -10 -38 -8 -40 1 -2 18 4 36 14 l33 17 -25 23
-24 23 -12 -37z"/>
<path d="M2242 1288 c-17 -17 -15 -58 3 -65 21 -7 33 6 16 17 -17 10 -6 43 11
38 7 -3 17 -19 22 -36 11 -39 18 -40 47 -4 14 17 23 22 26 15 6 -18 28 -16 44
4 13 15 12 16 -8 11 -13 -4 -23 -2 -23 3 0 16 -39 9 -49 -8 -9 -17 -10 -17
-17 2 -13 35 -49 46 -72 23z"/>
<path d="M3005 1180 c-9 -27 -1 -37 55 -65 60 -30 66 -31 80 -5 10 19 6 23
-44 46 -31 14 -58 30 -61 35 -10 15 -23 10 -30 -11z"/>
<path d="M608 12 c-10 -4 16 -7 57 -7 41 0 67 3 57 7 -9 4 -35 7 -57 7 -22 0
-48 -3 -57 -7z"/>
</g>
</svg>
